<svg width="8" height="7" viewBox="0 0 8 7" fill="none" xmlns="http://www.w3.org/2000/svg">
<path d="M4 1C4.49445 1 4.9778 1.14662 5.38893 1.42133C5.80005 1.69603 6.12048 2.08648 6.3097 2.54329C6.49892 3.00011 6.54843 3.50277 6.45196 3.98773C6.3555 4.47268 6.1174 4.91814 5.76777 5.26777C5.41814 5.6174 4.97268 5.8555 4.48773 5.95196C4.00277 6.04843 3.50011 5.99892 3.04329 5.8097C2.58648 5.62048 2.19603 5.30005 1.92133 4.88893C1.64662 4.4778 1.5 3.99445 1.5 3.5C1.5 2.83696 1.76339 2.20107 2.23223 1.73223C2.70108 1.26339 3.33696 1 4 1ZM4 0C3.30777 0 2.63108 0.205271 2.05551 0.589856C1.47993 0.974441 1.03133 1.52107 0.766423 2.16061C0.501516 2.80015 0.432205 3.50388 0.567253 4.18282C0.702301 4.86175 1.03564 5.48539 1.52513 5.97487C2.01461 6.46436 2.63825 6.7977 3.31719 6.93275C3.99612 7.0678 4.69985 6.99848 5.33939 6.73358C5.97893 6.46867 6.52556 6.02007 6.91014 5.4445C7.29473 4.86892 7.5 4.19223 7.5 3.5C7.5 2.57174 7.13125 1.6815 6.47487 1.02513C5.8185 0.368749 4.92826 0 4 0Z" fill="white"/>
</svg>
