<svg width="14" height="14" viewBox="0 0 14 14" fill="none" xmlns="http://www.w3.org/2000/svg">
<path d="M12.9647 4.53684C12.958 4.03192 12.8635 3.53202 12.6854 3.0595C12.5309 2.66094 12.2951 2.29897 11.9928 1.99672C11.6906 1.69448 11.3286 1.4586 10.93 1.30417C10.4636 1.12907 9.97083 1.0344 9.47271 1.02417C8.83138 0.995503 8.62805 0.987503 7.00005 0.987503C5.37205 0.987503 5.16338 0.987503 4.52671 1.02417C4.02882 1.03447 3.53628 1.12915 3.07005 1.30417C2.67142 1.4585 2.30939 1.69433 2.00714 1.99659C1.70488 2.29885 1.46904 2.66088 1.31471 3.0595C1.13927 3.52559 1.0448 4.01824 1.03538 4.51617C1.00671 5.15817 0.998047 5.3615 0.998047 6.9895C0.998047 8.6175 0.998047 8.8255 1.03538 9.46284C1.04538 9.9615 1.13938 10.4535 1.31471 10.9208C1.4693 11.3193 1.70531 11.6812 2.00767 11.9834C2.31003 12.2855 2.67209 12.5212 3.07071 12.6755C3.53567 12.8576 4.0283 12.9591 4.52738 12.9755C5.16938 13.0042 5.37271 13.0128 7.00071 13.0128C8.62871 13.0128 8.83738 13.0128 9.47405 12.9755C9.97215 12.9657 10.465 12.8712 10.9314 12.6962C11.3298 12.5416 11.6917 12.3056 11.9939 12.0034C12.2962 11.7012 12.5321 11.3393 12.6867 10.9408C12.862 10.4742 12.956 9.98217 12.966 9.48284C12.9947 8.8415 13.0034 8.63817 13.0034 7.0095C13.002 5.3815 13.002 5.17484 12.9647 4.53684ZM6.99605 10.0682C5.29338 10.0682 3.91405 8.68884 3.91405 6.98617C3.91405 5.2835 5.29338 3.90417 6.99605 3.90417C7.81344 3.90417 8.59736 4.22888 9.17535 4.80687C9.75334 5.38485 10.078 6.16877 10.078 6.98617C10.078 7.80357 9.75334 8.58749 9.17535 9.16547C8.59736 9.74346 7.81344 10.0682 6.99605 10.0682ZM10.2007 4.50884C9.80271 4.50884 9.48205 4.1875 9.48205 3.79017C9.48205 3.69584 9.50063 3.60243 9.53673 3.51528C9.57283 3.42812 9.62574 3.34893 9.69244 3.28223C9.75915 3.21553 9.83833 3.16262 9.92549 3.12652C10.0126 3.09042 10.106 3.07184 10.2004 3.07184C10.2947 3.07184 10.3881 3.09042 10.4753 3.12652C10.5624 3.16262 10.6416 3.21553 10.7083 3.28223C10.775 3.34893 10.8279 3.42812 10.864 3.51528C10.9001 3.60243 10.9187 3.69584 10.9187 3.79017C10.9187 4.1875 10.5974 4.50884 10.2007 4.50884Z" fill="white"/>
</svg>
