<svg width="16" height="14" viewBox="0 0 16 14" fill="none" xmlns="http://www.w3.org/2000/svg">
<path d="M15.7623 2.29115C15.2057 2.53781 14.6077 2.70448 13.979 2.77981C14.6277 2.39167 15.113 1.78079 15.3443 1.06115C14.7349 1.42314 14.0679 1.67794 13.3723 1.81448C12.9046 1.31506 12.285 0.98403 11.6099 0.872795C10.9347 0.76156 10.2417 0.87634 9.63849 1.19931C9.03525 1.52229 8.55552 2.03539 8.27377 2.65895C7.99202 3.28251 7.92402 3.98165 8.08033 4.64781C6.84546 4.58581 5.63742 4.26484 4.53462 3.70575C3.43181 3.14665 2.45889 2.36192 1.679 1.40248C1.41233 1.86248 1.259 2.39581 1.259 2.96381C1.2587 3.47514 1.38462 3.97864 1.62559 4.42963C1.86655 4.88063 2.21511 5.26517 2.64033 5.54915C2.14718 5.53345 1.66492 5.4002 1.23367 5.16048V5.20048C1.23362 5.91764 1.48169 6.61273 1.93579 7.16781C2.38989 7.72289 3.02205 8.10377 3.725 8.24581C3.26752 8.36962 2.78789 8.38786 2.32233 8.29915C2.52066 8.91622 2.907 9.45583 3.42724 9.84243C3.94749 10.229 4.57561 10.4433 5.22367 10.4551C4.12356 11.3188 2.76493 11.7872 1.36633 11.7851C1.11859 11.7852 0.871051 11.7707 0.625 11.7418C2.04465 12.6546 3.69723 13.139 5.385 13.1371C11.0983 13.1371 14.2217 8.40515 14.2217 4.30115C14.2217 4.16781 14.2183 4.03315 14.2123 3.89981C14.8199 3.46046 15.3443 2.91641 15.761 2.29315L15.7623 2.29115Z" fill="white"/>
</svg>
